# AST/ASF file generated using VICON BodyLanguage
# -----------------------------------------------
:version 1.10
:name VICON
:units
  mass 1.0
  length 0.45
  angle deg
:documentation
   .ast/.asf automatically generated from VICON data using
   VICON BodyBuilder and BodyLanguage model FoxedUp or BRILLIANT.MOD
:root
   order TX TY TZ RX RY RZ
   axis XYZ
   position 0 0 0  
   orientation 0 0 0 
:bonedata
  begin
     id 1 
     name lhipjoint
     direction 0.645893 -0.654526 0.392961 
     length 2.38111 
     axis 0 0 0  XYZ
  end
  begin
     id 2 
     name lfemur
     direction 0.34202 -0.939693 0  
     length 6.6822  
     axis 0 0 20  XYZ
    dof rx ry rz
    limits (-160.0 20.0)
           (-70.0 70.0)
           (-60.0 70.0)
  end
  begin
     id 3 
     name ltibia
     direction 0.34202 -0.939693 0   
     length 6.93904   
     axis 0 0 20   XYZ
    dof rx
    limits (-10.0 170.0)
  end
  begin
     id 4 
     name lfoot
     direction 0.0694967 -0.190941 0.979138   
     length 2.13616   
     axis -90 7.62852e-016 20   XYZ
    dof rx rz
    limits (-45.0 90.0)
           (-70.0 20.0)
  end
  begin
     id 5 
     name ltoes
     direction 1.535e-011 -4.2202e-011 1   
     length 1.07536   
     axis -90 7.62852e-016 20   XYZ
    dof rx
    limits (-90.0 20.0)
  end
  begin
     id 6 
     name rhipjoint
     direction -0.700219 -0.612087 0.367481   
     length 2.54621  
     axis 0 0 0  XYZ 
  end
  begin
     id 7 
     name rfemur
     direction -0.34202 -0.939693 0   
     length 6.55353   
     axis 0 0 -20   XYZ
    dof rx ry rz
    limits (-160.0 20.0)
           (-70.0 70.0)
           (-70.0 60.0)
  end
  begin
     id 8 
     name rtibia
     direction -0.34202 -0.939693 0   
     length 6.8736   
     axis 0 0 -20   XYZ
    dof rx
    limits (-10.0 170.0)
 end
 begin
     id 9 
     name rfoot
     direction -0.0679995 -0.186827 0.980037   
     length 2.1218  
     axis -90 -7.62852e-016 -20   XYZ
    dof rx rz
    limits (-45.0 90.0)
           (-20.0 70.0)
  end
  begin
     id 10 
     name rtoes
     direction -1.53589e-011 -4.21772e-011 1   
     length 1.06864   
     axis -90 -7.62852e-016 -20   XYZ
    dof rx
    limits (-90.0 20.0)
  end
  begin
     id 11 
     name lowerback
     direction -0.0416607 0.996347 -0.0745409   
     length 2.12205   
     axis 0 0 0   XYZ
    dof rx ry rz
    limits (-20.0 45.0)
           (-30.0 30.0)
           (-30.0 30.0)
  end
  begin
     id 12 
     name upperback
     direction -0.000153993 0.999276 -0.0380568   
     length 2.12759   
     axis 0 0 0   XYZ
    dof rx ry rz
    limits (-20.0 45.0)
           (-30.0 30.0)
           (-30.0 30.0)
  end
  begin
     id 13 
     name thorax
     direction 0.0187671 0.999821 -0.00241421   
     length 2.13704   
     axis 0 0 0   XYZ
    dof rx ry rz
    limits (-20.0 45.0)
           (-30.0 30.0)
           (-30.0 30.0)
  end
  begin
     id 14 
     name lowerneck
     direction 0.0268157 0.964865 0.261374   
     length 1.65253   
     axis 0 0 0   XYZ
    dof rx ry rz
    limits (-20.0 45.0)
           (-30.0 30.0)
           (-30.0 30.0)
  end
  begin
     id 15 
     name upperneck
     direction 0.00263774 0.939908 -0.341418   
     length 1.72375   
     axis 0 0 0   XYZ
    dof rx ry rz
    limits (-20.0 45.0)
           (-30.0 30.0)
           (-30.0 30.0)
  end
  begin
     id 16
     name head
     direction -0.00526001 0.989001 -0.147818  
     length 1.74878  
     axis 0 0 0   XYZ
    dof rx ry rz
    limits (-20.0 45.0)
           (-30.0 30.0)
           (-30.0 30.0)
  end
  begin
     id 17 
     name lclavicle
     direction 0.881214 0.461162 -0.103884  
     length 3.25108  
     axis 0 0 0   XYZ
    dof ry rz
    limits (-20.0 10.0)
           (0.0 20.0)
  end
  begin
     id 18 
     name lhumerus
     direction 1 -4.4899e-011 3.38092e-027   
     length 4.87408   
     axis 180 -30 -90   XYZ
    dof rx ry rz
    limits (-60.0 90.0)
           (-90.0 90.0)
           (-90.0 90.0)
  end
  begin
     id 19
     name lradius
     direction 1 -4.48931e-011 9.96288e-027   
     length 2.76729   
     axis 180 -30 -90   XYZ
    dof rx
    limits (-10.0 170.0)
  end
  begin
     id 20
     name lwrist
     direction 1 -4.4896e-011 1.50617e-026   
     length 1.38364   
     axis -9.31234e-015 90 90   XYZ
    dof ry
    limits (-180.0 0.0)
 end
  begin
     id 21 
     name lhand
     direction 1 -4.49038e-011 3.01286e-026   
     length 0.98922   
     axis -1.92217e-014 90 90   XYZ
    dof rx rz
    limits (-90.0 90.0)
           (-45.0 45.0)
  end
  begin
     id 22 
     name lfingers
     direction 1 -4.49051e-011 6.02588e-026   
     length 0.797535   
     axis -3.84436e-014 90 90   XYZ
    dof rx
    limits (0.0 90.0)
  end
  begin
     id 23
     name lthumb
     direction 0.707107 -6.34901e-011 0.707107   
     length 1.14511   
     axis -90 45 2.19363e-014   XYZ
    dof rx rz
    limits (-45.0 45.0)
           (-45.0 45.0)
  end
  begin
     id 24 
     name rclavicle
     direction -0.893894 0.441652 -0.0767889   
     length 3.29361  
     axis 0 0 0   XYZ 
    dof ry rz
    limits (-10.0 20.0)
           (-20.0 0.0)
  end
  begin
     id 25 
     name rhumerus
     direction -1 -4.48945e-011 8.0491e-028  
     length 4.71404   
     axis 180 30 90   XYZ
    dof rx ry rz
    limits (-90.0 60.0)
           (-90.0 90.0)
           (-90.0 90.0)
  end
  begin
     id 26 
     name rradius
     direction -1 -4.48986e-011 9.27795e-027   
     length 2.83468   
     axis 180 30 90   XYZ
    dof rx
    limits (-10.0 170.0)
  end
  begin
     id 27 
     name rwrist
     direction -1 -4.49029e-011 1.5064e-026   
     length 1.41734   
     axis -9.31234e-015 -90 -90   XYZ
    dof ry
    limits (-180.0 0.0)
  end
  begin
     id 28
     name rhand
     direction -1 -4.48857e-011 3.01165e-026   
     length 0.868195   
     axis -1.92217e-014 -90 -90   XYZ
    dof rx rz
    limits (-90.0 90.0)
           (-45.0 45.0)
  end
  begin
     id 29
     name rfingers
     direction -1 -4.49048e-011 6.02585e-026   
     length 0.699961   
     axis -3.84436e-014 -90 -90   XYZ
    dof rx
    limits (0.0 90.0)
  end
  begin
     id 30
     name rthumb
     direction -0.707107 -6.34854e-011 0.707107   
     length 1.00501   
     axis -90 -45 -2.19363e-014   XYZ
    dof rx rz
    limits (-45.0 45.0)
           (-45.0 45.0)
  end
:hierarchy
  begin
    root lhipjoint rhipjoint lowerback
    lhipjoint lfemur
    lfemur ltibia
    ltibia lfoot
    lfoot ltoes
    rhipjoint rfemur
    rfemur rtibia
    rtibia rfoot
    rfoot rtoes
    lowerback upperback
    upperback thorax
    thorax lowerneck lclavicle rclavicle
    lowerneck upperneck
    upperneck head
    lclavicle lhumerus
    lhumerus lradius
    lradius lwrist
    lwrist lhand lthumb
    lhand lfingers
    rclavicle rhumerus
    rhumerus rradius
    rradius rwrist
    rwrist rhand rthumb
    rhand rfingers
  end

#!OML:ASF H:\ManfredObstacles\Project 1\Capture day 2\Session 1\male.ASF
:FULLY-SPECIFIED
:DEGREES
163
root 2.05241 15.6672 -17.8078 -174.132 -4.66896 178.886
lowerback -3.64873 -3.55703 -5.99524
upperback 1.38045 -4.46786 0.223412
thorax 3.95608 -2.37692 3.25044
lowerneck -34.0697 1.4164 4.38251
upperneck 37.174 1.56128 -1.07409
head 20.5193 1.57772 -0.693234
rclavicle 3.18055e-015 7.15625e-015
rhumerus -88.7429 -42.469 2.46674
rradius 14.0078
rwrist 78.7934
rhand -2.26196 -8.24812
rfingers 7.12502
rthumb 23.4221 -36.8427
lclavicle 3.18055e-015 7.15625e-015
lhumerus -26.4288 -9.21253 85.2502
lradius 64.2396
lwrist -31.3263
lhand -5.63725 4.42924
lfingers 7.12502
lthumb 20.181 33.401
rfemur -29.2646 4.25792 22.1487
rtibia 33.2834
rfoot -4.35862 -18.3999
rtoes -9.86942
lfemur 2.91057 -2.96403 -20.5643
ltibia 49.44
lfoot 26.4048 -2.04493
ltoes -2.53873
164
root 2.06886 15.6684 -18.0113 -174.339 -4.54503 179.38
lowerback -3.58109 -3.38347 -5.51059
upperback 1.4924 -4.26334 0.333089
thorax 3.98401 -2.26714 3.11298
lowerneck -34.1436 1.33923 4.32194
upperneck 37.1648 1.42589 -0.985849
head 20.525 1.53086 -0.674189
rclavicle 2.66868e-014 -1.59028e-015
rhumerus -87.749 -43.3389 0.592466
rradius 14.0171
rwrist 78.1702
rhand -2.40008 -8.33441
rfingers 7.12502
rthumb 23.2896 -36.9458
lclavicle 2.66868e-014 -1.59028e-015
lhumerus -26.6612 -8.1867 85.2036
lradius 62.5547
lwrist -31.804
lhand -5.6906 4.72401
lfingers 7.12502
lthumb 20.1298 33.7011
rfemur -28.2261 3.9376 23.0346
rtibia 33.3008
rfoot -4.9426 -18.1254
rtoes -9.38956
lfemur 1.23644 -2.76627 -20.0179
ltibia 52.8985
lfoot 26.904 -0.966921
ltoes -1.45214
165
root 2.08662 15.6717 -18.2132 -174.51 -4.45118 179.753
lowerback -3.53387 -3.21587 -5.16725
upperback 1.58581 -4.05936 0.410466
thorax 4.01473 -2.16061 3.01913
lowerneck -34.1812 1.23606 4.24411
upperneck 37.1856 1.25943 -0.867611
head 20.5389 1.47865 -0.644177
rclavicle 1.16786e-014 1.94809e-014
rhumerus -86.6228 -44.2196 -1.43926
rradius 14.0199
rwrist 77.6543
rhand -2.58055 -8.36635
rfingers 7.12502
rthumb 23.1165 -36.9996
lclavicle 1.16786e-014 1.94809e-014
lhumerus -26.8658 -7.16997 85.1404
lradius 60.7168
lwrist -32.1845
lhand -5.76166 5.0892
lfingers 7.12502
lthumb 20.0615 34.0735
rfemur -27.1923 3.63542 23.7612
rtibia 33.2663
rfoot -5.54402 -17.9539
rtoes -9.17312
lfemur -0.490044 -2.60132 -19.612
ltibia 56.1662
lfoot 26.9288 0.520572
ltoes -0.572829
166
root 2.10518 15.6773 -18.4138 -174.665 -4.36357 180.018
lowerback -3.4935 -3.04542 -4.94943
upperback 1.67076 -3.84518 0.459737
thorax 4.04819 -2.05187 2.9662
lowerneck -34.1995 1.10708 4.13548
upperneck 37.2514 1.07036 -0.717554
head 20.576 1.42312 -0.5973
rclavicle 2.21645e-014 -1.11319e-014
rhumerus -85.2777 -45.1107 -3.71945
rradius 14.0199
rwrist 77.1688
rhand -2.74 -8.39203
rfingers 7.12502
rthumb 22.9635 -37.0443
lclavicle 2.21645e-014 -1.11319e-014
lhumerus -27.0219 -6.14209 85.0574
lradius 58.7211
lwrist -32.499
lhand -5.82056 5.50755
lfingers 7.12502
lthumb 20.0048 34.4978
rfemur -26.1437 3.39168 24.3375
rtibia 33.1788
rfoot -6.1247 -17.8542
rtoes -9.06822
lfemur -2.23205 -2.44449 -19.3344
ltibia 59.199
lfoot 26.5048 2.2413
ltoes 0.099991
167
root 2.12446 15.685 -18.6129 -174.814 -4.25218 180.205
lowerback -3.44851 -2.85959 -4.82653
upperback 1.73936 -3.60603 0.489202
thorax 4.06594 -1.93232 2.94806
lowerneck -34.1533 0.968001 4.02998
upperneck 37.3169 0.876406 -0.572506
head 20.5968 1.36788 -0.554209
rclavicle -3.10104e-014 -6.36111e-015
rhumerus -83.5781 -45.9524 -6.42289
rradius 14.0276
rwrist 76.6027
rhand -2.86357 -8.41059
rfingers 7.12502
rthumb 22.8449 -37.0776
lclavicle -3.10104e-014 -6.36111e-015
lhumerus -27.1531 -5.09446 84.954
lradius 56.5782
lwrist -32.7612
lhand -5.86829 5.95867
lfingers 7.12502
lthumb 19.959 34.9537
rfemur -25.0726 3.26401 24.7939
rtibia 33.0316
rfoot -6.65229 -17.8434
rtoes -9.01235
lfemur -3.96957 -2.27878 -19.1488
ltibia 61.9693
lfoot 25.6771 3.97974
ltoes 0.384374
